<svg width="24" height="24" viewBox="0 0 24 24" fill="none" xmlns="http://www.w3.org/2000/svg">
  <g clip-path="url(#clip0_483_12715)">
  <path d="M16.4391 2H7.55914C5.10914 2 3.11914 3.99 3.11914 6.44V17.55C3.11914 20 5.10914 21.99 7.55914 21.99H16.4491C18.8991 21.99 20.8891 20 20.8891 17.55V6.44C20.8891 3.99 18.8991 2 16.4491 2H16.4391ZM12.4991 14.83H9.49914C8.94914 14.83 8.49914 14.38 8.49914 13.83C8.49914 13.28 8.94914 12.83 9.49914 12.83H12.4991C13.0491 12.83 13.4991 13.28 13.4991 13.83C13.4991 14.38 13.0491 14.83 12.4991 14.83ZM14.4991 10.94H9.49914C8.94914 10.94 8.49914 10.49 8.49914 9.94C8.49914 9.39 8.94914 8.94 9.49914 8.94H14.4991C15.0491 8.94 15.4991 9.39 15.4991 9.94C15.4991 10.49 15.0491 10.94 14.4991 10.94Z" fill="currentColor"/>
  </g>
  <defs>
  <clipPath id="clip0_483_12715">
  <rect width="24" height="24" fill="currentColor"/>
  </clipPath>
  </defs>
  </svg>
  