<svg width="24" height="24" viewBox="0 0 24 24" fill="none" xmlns="http://www.w3.org/2000/svg">
  <g clip-path="url(#clip0_483_12708)">
  <path d="M16 22H8C5.24 22 3 19.76 3 17V7C3 4.24 5.24 2 8 2H16C18.76 2 21 4.24 21 7V17C21 19.76 18.76 22 16 22ZM8 4C6.35 4 5 5.35 5 7V17C5 18.65 6.35 20 8 20H16C17.65 20 19 18.65 19 17V7C19 5.35 17.65 4 16 4H8Z" fill="currentColor"/>
  <path d="M14.5 10.9399H9.5C8.95 10.9399 8.5 10.4899 8.5 9.93994C8.5 9.38994 8.95 8.93994 9.5 8.93994H14.5C15.05 8.93994 15.5 9.38994 15.5 9.93994C15.5 10.4899 15.05 10.9399 14.5 10.9399Z" fill="currentColor"/>
  <path d="M12.5 14.8301H9.5C8.95 14.8301 8.5 14.3801 8.5 13.8301C8.5 13.2801 8.95 12.8301 9.5 12.8301H12.5C13.05 12.8301 13.5 13.2801 13.5 13.8301C13.5 14.3801 13.05 14.8301 12.5 14.8301Z" fill="currentColor"/>
  </g>
  <defs>
  <clipPath id="clip0_483_12708">
  <rect width="24" height="24" fill="currentColor"/>
  </clipPath>
  </defs>
  </svg>
  