<svg width="24" height="24" viewBox="0 0 24 24" fill="none" xmlns="http://www.w3.org/2000/svg">
  <g clip-path="url(#clip0_483_12723)">
  <path d="M12 8C10.35 8 9 6.65 9 5C9 3.35 10.35 2 12 2C13.65 2 15 3.35 15 5C15 6.65 13.65 8 12 8ZM12 4C11.45 4 11 4.45 11 5C11 5.55 11.45 6 12 6C12.55 6 13 5.55 13 5C13 4.45 12.55 4 12 4Z" fill="currentColor"/>
  <path d="M19 11C17.35 11 16 9.65 16 8C16 6.35 17.35 5 19 5C20.65 5 22 6.35 22 8C22 9.65 20.65 11 19 11ZM19 7C18.45 7 18 7.45 18 8C18 8.55 18.45 9 19 9C19.55 9 20 8.55 20 8C20 7.45 19.55 7 19 7Z" fill="currentColor"/>
  <path d="M5 11C3.35 11 2 9.65 2 8C2 6.35 3.35 5 5 5C6.65 5 8 6.35 8 8C8 9.65 6.65 11 5 11ZM5 7C4.45 7 4 7.45 4 8C4 8.55 4.45 9 5 9C5.55 9 6 8.55 6 8C6 7.45 5.55 7 5 7Z" fill="currentColor"/>
  <path d="M16 22H8C5.24 22 3 19.76 3 17C3 14.44 4.93 12.32 7.42 12.03C8.2 10.21 9.99 9 12 9C14.01 9 15.81 10.22 16.58 12.03C19.06 12.32 21 14.44 21 17C21 19.76 18.76 22 16 22ZM8 14C6.35 14 5 15.35 5 17C5 18.65 6.35 20 8 20H16C17.65 20 19 18.65 19 17C19 15.35 17.65 14 16 14H15.8537C15.3987 14 15.0017 13.6911 14.89 13.25C14.55 11.92 13.36 11 12 11C10.64 11 9.45 11.93 9.11 13.25C8.99826 13.6911 8.60132 14 8.14631 14H8Z" fill="currentColor"/>
  </g>
  <defs>
  <clipPath id="clip0_483_12723">
  <rect width="24" height="24" fill="currentColor"/>
  </clipPath>
  </defs>
  </svg>
  