<svg width="24" height="24" viewBox="0 0 24 24" fill="none" xmlns="http://www.w3.org/2000/svg">
  <g clip-path="url(#clip0_483_12731)">
  <path d="M12 8C13.6569 8 15 6.65685 15 5C15 3.34315 13.6569 2 12 2C10.3431 2 9 3.34315 9 5C9 6.65685 10.3431 8 12 8Z" fill="currentColor"/>
  <path d="M19 11C20.6569 11 22 9.65685 22 8C22 6.34315 20.6569 5 19 5C17.3431 5 16 6.34315 16 8C16 9.65685 17.3431 11 19 11Z" fill="currentColor"/>
  <path d="M5 11C6.65685 11 8 9.65685 8 8C8 6.34315 6.65685 5 5 5C3.34315 5 2 6.34315 2 8C2 9.65685 3.34315 11 5 11Z" fill="currentColor"/>
  <path d="M16.5 12.6901H16.34C15.84 10.7501 14.09 9.31006 12 9.31006C9.91 9.31006 8.16 10.7501 7.66 12.6901H7.5C5.01 12.6901 3 14.7001 3 17.1901C3 19.6801 5.01 21.6901 7.5 21.6901H16.5C18.99 21.6901 21 19.6801 21 17.1901C21 14.7001 18.99 12.6901 16.5 12.6901Z" fill="currentColor"/>
  </g>
  <defs>
  <clipPath id="clip0_483_12731">
  <rect width="24" height="24" fill="currentColor"/>
  </clipPath>
  </defs>
  </svg>
  