<svg width="46" height="46" viewBox="0 0 46 46" fill="none" xmlns="http://www.w3.org/2000/svg">
  <circle cx="23" cy="23" r="23" fill="#595959"/>
  <g clip-path="url(#clip0_483_13038)">
  <path d="M30.4333 23.3168C30.5167 23.1168 30.5167 22.8835 30.4333 22.6835C30.3917 22.5835 30.3333 22.4918 30.25 22.4085L23.5833 15.7418C23.2583 15.4168 22.7333 15.4168 22.4083 15.7418C22.0833 16.0668 22.0833 16.5918 22.4083 16.9168L27.65 22.1585H16.3333C15.875 22.1585 15.5 22.5335 15.5 22.9918C15.5 23.4501 15.875 23.8251 16.3333 23.8251H27.6583L22.4167 29.0668C22.0917 29.3918 22.0917 29.9168 22.4167 30.2418C22.5833 30.4085 22.7917 30.4835 23.0083 30.4835C23.225 30.4835 23.4333 30.4001 23.6 30.2418L30.2667 23.5751C30.3417 23.5001 30.4083 23.4085 30.45 23.3001L30.4333 23.3168Z" fill="black"/>
  </g>
  <defs>
  <clipPath id="clip0_483_13038">
  <rect width="20" height="20" fill="white" transform="translate(13 13)"/>
  </clipPath>
  </defs>
  </svg>
  