<svg width="16" height="16" viewBox="0 0 16 16" fill="none" xmlns="http://www.w3.org/2000/svg">
  <path d="M15.4333 8.3168C15.5167 8.1168 15.5167 7.88346 15.4333 7.68346C15.3917 7.58346 15.3333 7.4918 15.25 7.40846L8.58333 0.741797C8.25833 0.416797 7.73333 0.416797 7.40833 0.741797C7.08333 1.0668 7.08333 1.5918 7.40833 1.9168L12.65 7.15846H1.33333C0.875 7.15846 0.5 7.53346 0.5 7.9918C0.5 8.45013 0.875 8.82513 1.33333 8.82513H12.6583L7.41667 14.0668C7.09167 14.3918 7.09167 14.9168 7.41667 15.2418C7.58333 15.4085 7.79167 15.4835 8.00833 15.4835C8.225 15.4835 8.43333 15.4001 8.6 15.2418L15.2667 8.57513C15.3417 8.50013 15.4083 8.40846 15.45 8.30013L15.4333 8.3168Z" fill="black"/>
  </svg>
  