<svg width="20" height="20" viewBox="0 0 20 20" fill="none" xmlns="http://www.w3.org/2000/svg">
  <g clip-path="url(#clip0_2489_2779)">
  <path d="M13.9416 17.1583H6.05828C4.89162 17.1583 3.85828 16.375 3.54995 15.25L1.72495 7.89996C1.55828 7.27496 1.75828 6.61662 2.24162 6.18329C2.73328 5.74996 3.40828 5.62496 4.01662 5.87496L6.24162 6.76662L8.81662 4.23329C9.46662 3.58329 10.525 3.58329 11.175 4.23329L13.7 6.75829L15.9749 5.88329C16.5833 5.64162 17.2666 5.75829 17.7499 6.19995C18.2416 6.63329 18.4333 7.29996 18.2666 7.93329L16.4416 15.2583C16.1333 16.4 15.0999 17.1916 13.9333 17.1916L13.9416 17.1583ZM3.39995 7.40829C3.39995 7.40829 3.34162 7.47496 3.34162 7.48329L5.16662 14.825C5.27495 15.2083 5.64162 15.4916 6.05828 15.4916H13.9416C14.3583 15.4916 14.7249 15.2083 14.8416 14.8083L16.6666 7.48329L16.6083 7.40829L14.3833 8.29996C13.75 8.55829 13.0166 8.40829 12.5333 7.91662L10.0083 5.39162L7.48328 7.91662C6.99995 8.39996 6.27495 8.54996 5.63328 8.29996L3.40828 7.40829H3.39995Z" fill="white"/>
  <path d="M9.99998 2.91665C10.5753 2.91665 11.0416 2.45028 11.0416 1.87498C11.0416 1.29968 10.5753 0.833313 9.99998 0.833313C9.42468 0.833313 8.95831 1.29968 8.95831 1.87498C8.95831 2.45028 9.42468 2.91665 9.99998 2.91665Z" fill="white"/>
  <path d="M17.5 5.11666C18.0753 5.11666 18.5416 4.65029 18.5416 4.07499C18.5416 3.4997 18.0753 3.03333 17.5 3.03333C16.9247 3.03333 16.4583 3.4997 16.4583 4.07499C16.4583 4.65029 16.9247 5.11666 17.5 5.11666Z" fill="white"/>
  <path d="M2.49998 5.11666C3.07528 5.11666 3.54165 4.65029 3.54165 4.07499C3.54165 3.4997 3.07528 3.03333 2.49998 3.03333C1.92468 3.03333 1.45831 3.4997 1.45831 4.07499C1.45831 4.65029 1.92468 5.11666 2.49998 5.11666Z" fill="white"/>
  </g>
  <defs>
  <clipPath id="clip0_2489_2779">
  <rect width="20" height="20" fill="white"/>
  </clipPath>
  </defs>
  </svg>
  