<svg width="24" height="24" viewBox="0 0 24 24" fill="none" xmlns="http://www.w3.org/2000/svg">
  <g clip-path="url(#clip0_483_12770)">
  <path d="M12 22C6.49 22 2 17.51 2 12C2 6.49 6.49 2 12 2C17.51 2 22 6.49 22 12C22 17.51 17.51 22 12 22ZM12 4C7.59 4 4 7.59 4 12C4 16.41 7.59 20 12 20C16.41 20 20 16.41 20 12C20 7.59 16.41 4 12 4Z" fill="currentColor"/>
  <path d="M11.08 15.8198C10.81 15.8198 10.55 15.7098 10.37 15.5198L7.28999 12.3798C6.89999 11.9898 6.90999 11.3498 7.29999 10.9698C7.68999 10.5798 8.32999 10.5898 8.70999 10.9798L11.08 13.3898L15.28 9.11981C15.67 8.72981 16.3 8.71981 16.69 9.10981C17.08 9.49981 17.09 10.1298 16.7 10.5198L11.78 15.5198C11.59 15.7098 11.34 15.8198 11.07 15.8198H11.08Z" fill="currentColor"/>
  </g>
  <defs>
  <clipPath id="clip0_483_12770">
  <rect width="24" height="24" fill="currentColor"/>
  </clipPath>
  </defs>
  </svg>
  