<svg width="24" height="24" viewBox="0 0 24 24" fill="none" xmlns="http://www.w3.org/2000/svg">
  <g clip-path="url(#clip0_2504_14633)">
  <path d="M18 22.0002H14C13.45 22.0002 13 21.5502 13 21.0002V17.0402C13 16.5002 12.55 16.0602 12 16.0602C11.45 16.0602 11 16.5002 11 17.0402V21.0002C11 21.5502 10.55 22.0002 10 22.0002H6C3.79 22.0002 2 20.2202 2 18.0302V10.4602C2 8.68023 2.97 7.03023 4.53 6.15023L9.49 2.68023C9.49 2.68023 9.55 2.64023 9.58 2.62023C11.1 1.78023 12.91 1.78023 14.43 2.62023C14.46 2.64023 14.49 2.66023 14.52 2.68023L19.48 6.15023C21.04 7.03023 22.01 8.68023 22.01 10.4602V18.0302C22.01 20.2202 20.22 22.0002 18.01 22.0002H18ZM15 20.0002H18C19.1 20.0002 20 19.1202 20 18.0302V10.4602C20 9.39023 19.41 8.40023 18.46 7.87023C18.43 7.85023 18.4 7.83023 18.37 7.81023L13.42 4.35023C12.53 3.88023 11.48 3.88023 10.59 4.35023L5.64 7.81023C5.64 7.81023 5.58 7.85023 5.55 7.87023C4.6 8.39023 4.01 9.38023 4.01 10.4602V18.0302C4.01 19.1202 4.91 20.0002 6.01 20.0002H9.01V17.0402C9.01 15.4002 10.36 14.0602 12.01 14.0602C13.66 14.0602 15.01 15.4002 15.01 17.0402V20.0002H15Z" fill="currentColor"/>
  </g>
  <defs>
  <clipPath id="clip0_2504_14633">
  <rect width="24" height="24" fill="currentColor"/>
  </clipPath>
  </defs>
  </svg>
  