<svg width="20" height="20" viewBox="0 0 20 20" fill="none" xmlns="http://www.w3.org/2000/svg">
  <g clip-path="url(#clip0_2107_8228)">
  <path d="M10.0001 1.66699C5.40008 1.66699 1.66675 5.40033 1.66675 10.0003C1.66675 14.6003 5.40008 18.3337 10.0001 18.3337C14.6001 18.3337 18.3334 14.6003 18.3334 10.0003C18.3334 5.40033 14.6001 1.66699 10.0001 1.66699ZM13.9251 8.76699L9.82508 12.9337C9.66675 13.092 9.45842 13.1837 9.23342 13.1837C9.00842 13.1837 8.79175 13.092 8.64175 12.9337L6.07508 10.317C5.75008 9.99199 5.75842 9.45866 6.08342 9.14199C6.40842 8.81699 6.94175 8.82533 7.25842 9.15033L9.23342 11.1587L12.7334 7.60033C13.0584 7.27533 13.5834 7.26699 13.9084 7.59199C14.2334 7.91699 14.2417 8.44199 13.9167 8.76699H13.9251Z" fill="#00C27C"/>
  </g>
  <defs>
  <clipPath id="clip0_2107_8228">
  <rect width="20" height="20" fill="white"/>
  </clipPath>
  </defs>
  </svg>
  