<svg width="20" height="20" viewBox="0 0 20 20" fill="none" xmlns="http://www.w3.org/2000/svg">
  <g clip-path="url(#clip0_2107_1618)">
  <circle cx="9.5835" cy="10" r="5" fill="black"/>
  <path d="M10.0001 1.66699C5.40008 1.66699 1.66675 5.40033 1.66675 10.0003C1.66675 14.6003 5.40008 18.3337 10.0001 18.3337C14.6001 18.3337 18.3334 14.6003 18.3334 10.0003C18.3334 5.40033 14.6001 1.66699 10.0001 1.66699ZM12.9501 10.8337H7.05842C6.60008 10.8337 6.22508 10.4587 6.22508 10.0003C6.22508 9.54199 6.60008 9.16699 7.05842 9.16699H12.9501C13.4084 9.16699 13.7834 9.54199 13.7834 10.0003C13.7834 10.4587 13.4084 10.8337 12.9501 10.8337Z" fill="#595959"/>
  </g>
  <defs>
  <clipPath id="clip0_2107_1618">
  <rect width="20" height="20" fill="white"/>
  </clipPath>
  </defs>
  </svg>
  