<svg width="20" height="20" viewBox="0 0 20 20" fill="none" xmlns="http://www.w3.org/2000/svg">
  <g clip-path="url(#clip0_2107_4710)">
  <path d="M10 16.6669C5.50005 16.6669 2.81672 13.5085 1.80005 10.5419C1.67505 10.1835 1.67505 9.80853 1.80005 9.4502C2.81672 6.49186 5.50005 3.3252 10 3.3252C14.5 3.3252 17.1834 6.48353 18.2 9.44186C18.325 9.8002 18.325 10.1835 18.2 10.5419C17.1584 13.5002 14.4584 16.6502 10.0084 16.6502L10 16.6669ZM10 5.0002C5.44172 5.0002 3.77505 8.8252 3.37505 9.99186C3.77505 11.1752 5.44172 15.0002 10 15.0002C14.5584 15.0002 16.2084 11.1752 16.625 10.0002C16.225 8.8252 14.5584 5.00853 10 5.00853V5.0002Z" fill="white"/>
  <path d="M10.0001 13.3337C8.15841 13.3337 6.66675 11.842 6.66675 10.0003C6.66675 8.15866 8.15841 6.66699 10.0001 6.66699C11.8417 6.66699 13.3334 8.15866 13.3334 10.0003C13.3334 11.842 11.8417 13.3337 10.0001 13.3337ZM10.0001 8.33366C9.08341 8.33366 8.33341 9.08366 8.33341 10.0003C8.33341 10.917 9.08341 11.667 10.0001 11.667C10.9167 11.667 11.6667 10.917 11.6667 10.0003C11.6667 9.08366 10.9167 8.33366 10.0001 8.33366Z" fill="white"/>
  </g>
  <defs>
  <clipPath id="clip0_2107_4710">
  <rect width="20" height="20" fill="white"/>
  </clipPath>
  </defs>
  </svg>
  