<svg width="25" height="24" viewBox="0 0 25 24" fill="none" xmlns="http://www.w3.org/2000/svg">
  <g clip-path="url(#clip0_483_12920)">
  <path d="M22.8795 11.33C21.5895 7.79 18.1895 4 12.4995 4C11.4895 4 10.5095 4.12 9.59954 4.35C9.05954 4.49 8.73954 5.03 8.87954 5.56C9.01954 6.09 9.55954 6.42 10.0895 6.28C10.8395 6.09 11.6595 5.99 12.4995 5.99C18.3595 5.99 20.4895 10.59 20.9995 11.98C20.8295 12.45 20.3295 13.66 19.3395 14.86C18.9895 15.29 19.0495 15.92 19.4795 16.27C19.6695 16.42 19.8895 16.5 20.1095 16.5C20.3995 16.5 20.6895 16.38 20.8795 16.14C22.0195 14.76 22.6195 13.37 22.8795 12.67C23.0395 12.23 23.0395 11.77 22.8795 11.33Z" fill="white"/>
  <path d="M15.9298 14.0201L14.4198 12.5101L11.9798 10.0701L10.4698 8.56006L5.20977 3.29006C4.81977 2.90006 4.18977 2.90006 3.79977 3.29006C3.40977 3.68006 3.40977 4.31006 3.79977 4.70006L5.52977 6.43006C3.43977 8.18006 2.46977 10.3801 2.12977 11.3301C1.96977 11.7701 1.96977 12.2301 2.12977 12.6701C3.41977 16.2101 6.81977 20.0001 12.5098 20.0001C14.4598 20.0001 16.2298 19.5401 17.7898 18.6901L19.7998 20.7001C19.9998 20.9001 20.2498 20.9901 20.5098 20.9901C20.7698 20.9901 21.0198 20.8901 21.2198 20.7001C21.6098 20.3101 21.6098 19.6801 21.2198 19.2901L15.9498 14.0201H15.9298ZM13.0098 13.9301C12.8498 13.9701 12.6798 14.0001 12.4998 14.0001C11.3998 14.0001 10.4998 13.1001 10.4998 12.0001C10.4998 11.8201 10.5298 11.6501 10.5698 11.4901L13.0098 13.9301ZM12.4998 18.0001C6.63977 18.0001 4.50977 13.4001 3.99977 12.0101C4.22977 11.3801 5.07977 9.37006 6.94977 7.86006L9.06977 9.98006C8.71977 10.5701 8.49977 11.2601 8.49977 12.0001C8.49977 14.2101 10.2898 16.0001 12.4998 16.0001C13.2398 16.0001 13.9198 15.7801 14.5198 15.4301L16.3098 17.2201C15.1698 17.7401 13.8898 18.0001 12.4998 18.0001Z" fill="white"/>
  </g>
  <defs>
  <clipPath id="clip0_483_12920">
  <rect width="24" height="24" fill="white" transform="translate(0.5)"/>
  </clipPath>
  </defs>
  </svg>
  