<svg width="24" height="24" viewBox="0 0 24 24" fill="none" xmlns="http://www.w3.org/2000/svg">
  <g clip-path="url(#clip0_2489_622)">
  <path d="M12 22C6.49 22 2 17.51 2 12C2 6.49 6.49 2 12 2C17.51 2 22 6.49 22 12C22 17.51 17.51 22 12 22ZM12 4C7.59 4 4 7.59 4 12C4 16.41 7.59 20 12 20C16.41 20 20 16.41 20 12C20 7.59 16.41 4 12 4Z" fill="white"/>
  <path d="M14.5 11H13V9.5C13 8.95 12.55 8.5 12 8.5C11.45 8.5 11 8.95 11 9.5V11H9.5C8.95 11 8.5 11.45 8.5 12C8.5 12.55 8.95 13 9.5 13H11V14.5C11 15.05 11.45 15.5 12 15.5C12.55 15.5 13 15.05 13 14.5V13H14.5C15.05 13 15.5 12.55 15.5 12C15.5 11.45 15.05 11 14.5 11Z" fill="white"/>
  </g>
  <defs>
  <clipPath id="clip0_2489_622">
  <rect width="24" height="24" fill="white"/>
  </clipPath>
  </defs>
  </svg>
  