<svg width="24" height="24" viewBox="0 0 24 24" fill="none" xmlns="http://www.w3.org/2000/svg">
  <g clip-path="url(#clip0_2489_3949)">
  <path d="M12 2C6.48 2 2 6.48 2 12C2 17.52 6.48 22 12 22C17.52 22 22 17.52 22 12C22 6.48 17.52 2 12 2ZM14.5 13H13V14.5C13 15.05 12.55 15.5 12 15.5C11.45 15.5 11 15.05 11 14.5V13H9.5C8.95 13 8.5 12.55 8.5 12C8.5 11.45 8.95 11 9.5 11H11V9.5C11 8.95 11.45 8.5 12 8.5C12.55 8.5 13 8.95 13 9.5V11H14.5C15.05 11 15.5 11.45 15.5 12C15.5 12.55 15.05 13 14.5 13Z" fill="white"/>
  </g>
  <defs>
  <clipPath id="clip0_2489_3949">
  <rect width="24" height="24" fill="white"/>
  </clipPath>
  </defs>
  </svg>
  