<svg width="24" height="24" viewBox="0 0 24 24" fill="none" xmlns="http://www.w3.org/2000/svg">
  <g clip-path="url(#clip0_483_12685)">
  <path d="M22.06 19.94L17.83 15.71C18.88 14.24 19.5 12.44 19.5 10.5C19.5 5.54 15.46 1.5 10.5 1.5C5.54 1.5 1.5 5.54 1.5 10.5C1.5 15.46 5.54 19.5 10.5 19.5C12.44 19.5 14.23 18.88 15.71 17.83L19.94 22.06C20.23 22.35 20.62 22.5 21 22.5C21.38 22.5 21.77 22.35 22.06 22.06C22.65 21.47 22.65 20.52 22.06 19.94ZM4.5 10.5C4.5 7.19 7.19 4.5 10.5 4.5C13.81 4.5 16.5 7.19 16.5 10.5C16.5 13.81 13.81 16.5 10.5 16.5C7.19 16.5 4.5 13.81 4.5 10.5Z" fill="currentColor"/>
  </g>
  <defs>
  <clipPath id="clip0_483_12685">
  <rect width="24" height="24" fill="currentColor"/>
  </clipPath>
  </defs>
  </svg>
  