<svg width="20" height="20" viewBox="0 0 20 20" fill="none" xmlns="http://www.w3.org/2000/svg">
  <g clip-path="url(#clip0_2489_2772)">
  <path d="M18.4084 1.59166C17.375 0.558326 15.6584 0.59166 14.5917 1.66666L13.2 3.05833C13.075 3.04999 12.9417 3.01666 12.8167 3.01666H5.83335C3.53335 3.01666 1.66669 4.88333 1.66669 7.18333V14.175C1.66669 16.475 3.53335 18.3417 5.83335 18.3417H12.825C15.125 18.3417 16.9917 16.475 16.9917 14.175V7.18333C16.9917 7.05833 16.9667 6.93333 16.95 6.79999L18.3417 5.40833C19.4167 4.33333 19.45 2.62499 18.4167 1.59166H18.4084ZM15.325 14.1667C15.325 15.5417 14.2 16.6667 12.825 16.6667H5.83335C4.45835 16.6667 3.33335 15.5417 3.33335 14.1667V7.17499C3.33335 5.79999 4.45835 4.67499 5.83335 4.67499H11.575L7.85835 8.39166C7.74169 8.50833 7.65835 8.66666 7.62502 8.82499L7.04169 11.975C6.99169 12.2417 7.07502 12.525 7.27502 12.7167C7.34169 12.7833 7.43335 12.8417 7.51669 12.875C7.53335 12.8833 7.55002 12.8917 7.56669 12.9C7.65835 12.9333 7.75002 12.95 7.84169 12.9583C7.84169 12.9583 7.85002 12.9583 7.85835 12.9583C7.90835 12.9583 7.95835 12.9583 8.00835 12.9417L11.1584 12.3583C11.325 12.325 11.475 12.25 11.6 12.125L15.3167 8.40833V14.15L15.325 14.1667ZM17.1584 4.22499L15.4917 5.89166L10.6084 10.775L8.90002 11.0917L9.21669 9.38333L14.1 4.49999L15.7667 2.83333C16.1917 2.40833 16.8417 2.37499 17.225 2.75833C17.6084 3.14166 17.575 3.79999 17.15 4.21666L17.1584 4.22499Z" fill="white"/>
  </g>
  <defs>
  <clipPath id="clip0_2489_2772">
  <rect width="20" height="20" fill="white"/>
  </clipPath>
  </defs>
  </svg>
  